HIERARCHY
ROOT Hips
{
	OFFSET 182.371002 92.491722 19.190800
	CHANNELS 6 Xposition Yposition Zposition Zrotation Yrotation Xrotation 
	JOINT LeftUpLeg
	{
		OFFSET 0.103461 1.857828 10.548504
		CHANNELS 3 Zrotation Yrotation Xrotation
		JOINT LeftLeg
		{
			OFFSET 43.500008 -0.000031 0.000006
			CHANNELS 3 Zrotation Yrotation Xrotation
			JOINT LeftFoot
			{
				OFFSET 42.372200 0.000019 -0.000010
				CHANNELS 3 Zrotation Yrotation Xrotation
				JOINT LeftToe
				{
					OFFSET 17.299999 -0.000000 0.000002
					CHANNELS 3 Zrotation Yrotation Xrotation
					End Site
					{
						OFFSET 0.000000 0.000000 0.000000
					}
				}
			}
		}
	}
	JOINT RightUpLeg
	{
		OFFSET 0.103457 1.857829 -10.548504
		CHANNELS 3 Zrotation Yrotation Xrotation
		JOINT RightLeg
		{
			OFFSET 43.500046 -0.000019 0.000011
			CHANNELS 3 Zrotation Yrotation Xrotation
			JOINT RightFoot
			{
				OFFSET 42.372261 0.000000 0.000008
				CHANNELS 3 Zrotation Yrotation Xrotation
				JOINT RightToe
				{
					OFFSET 17.299990 -0.000006 0.000008
					CHANNELS 3 Zrotation Yrotation Xrotation
					End Site
					{
						OFFSET 0.000000 0.000000 0.000000
					}
				}
			}
		}
	}
	JOINT Spine
	{
		OFFSET 6.901969 -2.603727 -0.000006
		CHANNELS 3 Zrotation Yrotation Xrotation
		JOINT Spine1
		{
			OFFSET 12.588100 -0.000002 0.000002
			CHANNELS 3 Zrotation Yrotation Xrotation
			JOINT Spine2
			{
				OFFSET 12.343195 0.000004 0.000008
				CHANNELS 3 Zrotation Yrotation Xrotation
				JOINT Neck
				{
					OFFSET 25.832905 -0.000008 -0.000002
					CHANNELS 3 Zrotation Yrotation Xrotation
					JOINT Head
					{
						OFFSET 11.766608 0.000010 -0.000008
						CHANNELS 3 Zrotation Yrotation Xrotation
						End Site
						{
							OFFSET 0.000000 0.000000 0.000000
						}
					}
				}
				JOINT LeftShoulder
				{
					OFFSET 19.745903 -1.480370 6.000106
					CHANNELS 3 Zrotation Yrotation Xrotation
					JOINT LeftArm
					{
						OFFSET 11.284119 -0.000006 -0.000014
						CHANNELS 3 Zrotation Yrotation Xrotation
						JOINT LeftForeArm
						{
							OFFSET 33.000050 0.000004 0.000026
							CHANNELS 3 Zrotation Yrotation Xrotation
							JOINT LeftHand
							{
								OFFSET 25.200020 0.000017 0.000004
								CHANNELS 3 Zrotation Yrotation Xrotation
								End Site
								{
									OFFSET 0.000000 0.000000 0.000000
								}
							}
						}
					}
				}
				JOINT RightShoulder
				{
					OFFSET 19.746099 -1.480375 -6.000082
					CHANNELS 3 Zrotation Yrotation Xrotation
					JOINT RightArm
					{
						OFFSET 11.284140 -0.000015 -0.000008
						CHANNELS 3 Zrotation Yrotation Xrotation
						JOINT RightForeArm
						{
							OFFSET 33.000084 0.000016 0.000002
							CHANNELS 3 Zrotation Yrotation Xrotation
							JOINT RightHand
							{
								OFFSET 25.199783 0.000142 0.000437
								CHANNELS 3 Zrotation Yrotation Xrotation
								End Site
								{
									OFFSET 0.000000 0.000000 0.000000
								}
							}
						}
					}
				}
			}
		}
	}
}
MOTION
Frames: 10
Frame Time: 0.033333
182.371002 92.491722 -19.1908 91.028404 -4.6173 -88.122008 -176.035968 -0.326097 -178.002257 -14.415724 -1.495975 -2.313968 84.146237 1.783958 0.654846 21.454557 0.003115 1.7e-05 -173.925836 0.211396 179.321754 -8.573522 3.135627 2.791777 81.993996 -2.10753 -0.406959 21.454553 -0.003086 1e-06 6.502539 0.269085 -0.102756 2.969459 0.541102 -0.228025 2.651345 0.539582 -0.231296 20.093235 -2.851266 0.449977 -19.683856 2.188337 -0.332013 -170.195965 -84.719658 -11.47756 1.314275 6.752527 -15.6703 -14.469638 -18.399922 1.261888 17.54331 -9.720298 5.651329 -85.065047 82.401076 97.384011 -8.847029 -4.799487 11.66295 -9.54213 14.753468 -0.96811 13.377902 4.29259 10.249623 
182.373795 92.49115 -19.200319 91.02841 -4.624827 -88.137075 -176.02478 -0.318496 -178.013472 -14.423973 -1.482397 -2.319077 84.149085 1.785284 0.645581 21.454558 0.0031 1.5e-05 -173.912558 0.211398 179.314008 -8.573518 3.1384 2.791785 81.995793 -2.107525 -0.406965 21.454551 -0.003096 0.0 6.502539 0.266417 -0.102761 2.969464 0.535684 -0.223298 2.65135 0.534201 -0.226542 20.084176 -2.856324 0.449977 -19.652833 2.188335 -0.332072 -170.113252 -84.720027 -11.560934 1.303828 6.775047 -15.670305 -14.46964 -18.38837 1.261911 17.562494 -9.720294 5.636866 -85.037433 82.398159 97.411987 -8.855041 -4.805652 11.677799 -9.535811 14.748062 -0.968116 13.390489 4.283697 10.24347 
182.383301 92.489243 -19.22629 91.023588 -4.643405 -88.168685 -175.993047 -0.29899 -178.002707 -14.437457 -1.455361 -2.353494 84.156721 1.80318 0.620087 21.454557 0.00312 1.8e-05 -173.875716 0.211397 179.276073 -8.573511 3.146058 2.796116 82.003483 -2.110669 -0.406955 21.454551 -0.003094 0.0 6.502534 0.258796 -0.102759 2.969466 0.520287 -0.211695 2.651353 0.518879 -0.214842 20.051866 -2.839278 0.449973 -19.574774 2.188341 -0.322748 -169.918837 -84.732438 -11.757001 1.277801 6.843768 -15.669475 -14.46964 -18.366341 1.261897 17.622547 -9.71633 5.536799 -85.032727 82.362307 97.420033 -8.895746 -4.811637 11.715216 -9.511067 14.736869 -0.968118 13.370472 4.257225 10.158043 
182.395599 92.486862 -19.254829 91.016102 -4.663913 -88.184675 -175.95585 -0.290104 -177.982763 -14.442455 -1.44698 -2.379607 84.162124 1.818104 0.606382 21.45456 0.003102 1.6e-05 -173.84065 0.211392 179.195436 -8.573529 3.154611 2.834759 82.021563 -2.137118 -0.406958 21.454551 -0.003097 0.0 6.502532 0.251076 -0.102753 2.969453 0.504791 -0.205127 2.651353 0.503403 -0.208169 20.017039 -2.820853 0.449972 -19.519088 2.197409 -0.322006 -169.83167 -84.732397 -11.844906 1.2636 6.899143 -15.658356 -14.482752 -18.363549 1.26191 17.684622 -9.677459 5.516212 -85.131225 82.303178 97.326712 -8.949318 -4.792795 11.745007 -9.462778 14.731378 -0.968112 13.3314 4.209756 10.000557 
182.4104 92.484337 -19.287399 91.0082 -4.685646 -88.187557 -175.914801 -0.289001 -177.931182 -14.442488 -1.453429 -2.414067 84.166372 1.840596 0.599963 21.454557 0.003104 1.6e-05 -173.799669 0.205004 179.120564 -8.570639 3.156287 2.877525 82.039014 -2.167515 -0.411371 21.454551 -0.003094 -2e-06 6.502541 0.245654 -0.10276 2.969462 0.493925 -0.205576 2.651351 0.492549 -0.208564 19.986933 -2.833215 0.449979 -19.498769 2.221575 -0.328207 -169.741785 -84.734295 -11.935581 1.266557 6.961901 -15.691919 -14.508343 -18.356979 1.261918 17.71555 -9.577399 5.604064 -85.280895 82.219085 97.184392 -9.021891 -4.741627 11.759759 -9.406698 14.727278 -0.968116 13.289168 4.13633 9.924893 
182.424194 92.481133 -19.32408 90.997722 -4.713598 -88.186997 -175.864517 -0.284893 -177.883903 -14.442163 -1.461168 -2.442503 84.171625 1.859329 0.595708 21.454558 0.003106 1.7e-05 -173.74179 0.201795 179.078175 -8.555753 3.154967 2.904119 82.054416 -2.186922 -0.416728 21.454551 -0.003091 0.0 6.502529 0.241045 -0.102758 2.969464 0.48473 -0.208794 2.651349 0.483348 -0.211739 19.970922 -2.859248 0.448458 -19.536779 2.255536 -0.343837 -169.746771 -84.737123 -11.930588 1.301745 6.993154 -15.68591 -14.480365 -18.323661 1.261896 17.705338 -9.391184 5.528098 -85.459245 82.127048 97.014047 -9.08692 -4.674086 11.799866 -9.361303 14.720992 -0.968105 13.252541 4.076355 9.930235 
182.435699 92.477463 -19.36228 90.986992 -4.744343 -88.185269 -175.812334 -0.276994 -177.854929 -14.44577 -1.457911 -2.459938 84.179575 1.870076 0.590423 21.454557 0.003114 1.8e-05 -173.678487 0.196577 179.058832 -8.539559 3.152429 2.917574 82.070167 -2.197224 -0.422015 21.454553 -0.003076 2e-06 6.502546 0.239054 -0.102758 2.97436 0.478344 -0.213284 2.656265 0.476916 -0.216182 19.966593 -2.898127 0.435024 -19.634813 2.29113 -0.373643 -169.973123 -84.739138 -11.702298 1.38669 7.005601 -15.661986 -14.439541 -18.29648 1.261901 17.659461 -9.176255 5.36385 -85.478882 82.0376 97.002763 -9.131063 -4.63776 11.852021 -9.329911 14.721141 -0.968109 13.225109 4.077112 9.952885 
182.445602 92.473717 -19.399611 90.981029 -4.774975 -88.18587 -175.765739 -0.272209 -177.83672 -14.460327 -1.451967 -2.471671 84.192682 1.876517 0.583751 21.454557 0.003108 1.7e-05 -173.615417 0.191485 179.062165 -8.523205 3.150436 2.917112 82.084032 -2.196354 -0.426788 21.454555 -0.003094 -1e-06 6.502539 0.237938 -0.102747 2.984085 0.476362 -0.217754 2.66598 0.474914 -0.220643 19.952067 -2.935862 0.417492 -19.76112 2.312689 -0.403354 -169.933385 -84.738954 -11.74241 1.456527 7.016781 -15.661868 -14.400002 -18.306801 1.261909 17.601461 -8.979273 5.25641 -85.327976 81.984721 97.159311 -9.109909 -4.634444 11.885405 -9.322779 14.719319 -0.968116 13.20807 4.124572 9.965746 
182.4534 92.470596 -19.432791 90.980121 -4.794178 -88.192188 -175.738869 -0.271196 -177.823989 -14.488103 -1.447545 -2.482109 84.209696 1.881731 0.57553 21.454562 0.003111 1.8e-05 -173.569928 0.188904 179.082533 -8.514304 3.148396 2.90458 82.096996 -2.191008 -0.431988 21.454555 -0.003085 -1e-06 6.502534 0.237711 -0.102756 2.991799 0.476494 -0.219612 2.673682 0.475041 -0.222494 19.935849 -2.973319 0.410849 -19.875418 2.351049 -0.427881 -169.554474 -84.733517 -12.124492 1.493569 7.031261 -15.67753 -14.386199 -18.379404 1.261896 17.610832 -8.833172 5.348634 -85.175287 81.978061 97.313332 -9.028332 -4.622958 11.905433 -9.315052 14.707711 -0.968108 13.198261 4.143188 9.939426 
182.454803 92.469147 -19.45949 90.979178 -4.793164 -88.211613 -175.730618 -0.25909 -177.856432 -14.508766 -1.427875 -2.475205 84.219115 1.874471 0.565787 21.45456 0.003106 1.7e-05 -173.557812 0.192907 179.075635 -8.520482 3.148019 2.900005 82.110861 -2.187562 -0.436348 21.454551 -0.003092 0.0 6.499802 0.238408 -0.102756 2.986355 0.478176 -0.21367 2.668241 0.476737 -0.216563 19.968929 -2.98003 0.415082 -19.983535 2.37084 -0.432572 -169.317958 -84.727117 -12.362961 1.535017 7.017564 -15.657411 -14.370491 -18.44448 1.26191 17.60254 -8.723258 5.583181 -85.212129 81.966908 97.27735 -8.97383 -4.590332 11.818637 -9.284242 14.703732 -0.96811 13.194238 4.094481 9.850387 
